HIERARCHY
ROOT joint_Root
{
	OFFSET 0.0 0.0 0.0
	CHANNELS 6 Xposition Yposition Zposition Zrotation Xrotation Yrotation 
	JOINT Hips
	{
		OFFSET 4.5925 91.4895 -427.239
		CHANNELS 6 Xposition Yposition Zposition Zrotation Xrotation Yrotation 
		JOINT Spine
		{
			OFFSET 15.7357 0.0 0.0
			CHANNELS 6 Xposition Yposition Zposition Zrotation Xrotation Yrotation 
			JOINT Chest
			{
				OFFSET 8.98455 -0.406207 0.0
				CHANNELS 6 Xposition Yposition Zposition Zrotation Xrotation Yrotation 
				JOINT Neck
				{
					OFFSET 16.3773 0.0 0.0
					CHANNELS 6 Xposition Yposition Zposition Zrotation Xrotation Yrotation 
					JOINT Head
					{
						OFFSET 6.45672 0.0 0.0
						CHANNELS 6 Xposition Yposition Zposition Zrotation Xrotation Yrotation 
						End Site
						{
							OFFSET 0.0 0.0 0.0
						}
					}
				}
				JOINT Shoulder_L
				{
					OFFSET 12.9942 -0.242716 4.98039
					CHANNELS 6 Xposition Yposition Zposition Zrotation Xrotation Yrotation 
					JOINT UpperArm_L
					{
						OFFSET 5.34809 0.0 0.0
						CHANNELS 6 Xposition Yposition Zposition Zrotation Xrotation Yrotation 
						JOINT LowerArm_L
						{
							OFFSET 24.3286 1.87007e-05 0.0
							CHANNELS 6 Xposition Yposition Zposition Zrotation Xrotation Yrotation 
							JOINT Hand_L
							{
								OFFSET 22.2916 0.0 0.0
								CHANNELS 6 Xposition Yposition Zposition Zrotation Xrotation Yrotation 
								End Site
								{
									OFFSET 0.0 0.0 0.0
								}
							}
						}
					}
				}
				JOINT Shoulder_R
				{
					OFFSET 12.9945 -0.242716 -4.98039
					CHANNELS 6 Xposition Yposition Zposition Zrotation Xrotation Yrotation 
					JOINT UpperArm_R
					{
						OFFSET -5.34813 0.0 0.0
						CHANNELS 6 Xposition Yposition Zposition Zrotation Xrotation Yrotation 
						JOINT LowerArm_R
						{
							OFFSET -24.3289 0.000322201 0.0
							CHANNELS 6 Xposition Yposition Zposition Zrotation Xrotation Yrotation 
							JOINT Hand_R
							{
								OFFSET -22.2915 -0.000108084 0.0
								CHANNELS 6 Xposition Yposition Zposition Zrotation Xrotation Yrotation 
								End Site
								{
									OFFSET 0.0 0.0 0.0
								}
							}
						}
					}
				}
			}
		}
		JOINT UpperLeg_L
		{
			OFFSET -2.19248 -6.46944 0.0
			CHANNELS 6 Xposition Yposition Zposition Zrotation Xrotation Yrotation 
			JOINT LowerLeg_L
			{
				OFFSET 39.0811 0.0 -1.23785e-05
				CHANNELS 6 Xposition Yposition Zposition Zrotation Xrotation Yrotation 
				JOINT Foot_L
				{
					OFFSET 40.9854 0.0 -1.26872e-05
					CHANNELS 6 Xposition Yposition Zposition Zrotation Xrotation Yrotation 
					JOINT Toes_L
					{
						OFFSET 11.7543 0.0 0.0
						CHANNELS 6 Xposition Yposition Zposition Zrotation Xrotation Yrotation 
						End Site
						{
							OFFSET 0.0 0.0 0.0
						}
					}
				}
			}
		}
		JOINT UpperLeg_R
		{
			OFFSET -2.19251 6.46944 0.0
			CHANNELS 6 Xposition Yposition Zposition Zrotation Xrotation Yrotation 
			JOINT LowerLeg_R
			{
				OFFSET -39.0811 -0.00228153 -0.0401928
				CHANNELS 6 Xposition Yposition Zposition Zrotation Xrotation Yrotation 
				JOINT Foot_R
				{
					OFFSET -40.9854 0.0 0.0
					CHANNELS 6 Xposition Yposition Zposition Zrotation Xrotation Yrotation 
					JOINT Toes_R
					{
						OFFSET -11.7543 0.0 0.0
						CHANNELS 6 Xposition Yposition Zposition Zrotation Xrotation Yrotation 
						End Site
						{
							OFFSET 0.0 0.0 0.0
						}
					}
				}
			}
		}
	}
}
MOTION
Frames:	9
Frame Time:	0.0333333
0.000000 0.000000 0.000000 0.000000 0.000000 -0.000000 106.696000 90.193600 200.318000 -85.264800 52.815600 -175.947000 15.735700 0.000005 -0.000001 97.144100 83.467300 -95.343200 8.984550 -0.406207 -0.000000 5.177180 1.580790 3.526280 16.377300 -0.000001 -0.000001 -1.456800 5.929120 2.901110 6.456720 -0.000001 -0.000000 -8.208510 8.103400 10.082700 12.994200 -0.242716 4.980390 -90.991100 3.263610 -73.097000 5.348090 -0.000007 -0.000001 -69.769700 24.393800 -11.598300 24.328600 0.000019 0.000005 9.208920 33.110700 -16.530300 22.291600 -0.000001 0.000005 12.222600 5.066370 5.873240 12.994500 -0.242716 -4.980390 88.441400 11.334900 -82.118300 -5.348130 -0.000001 -0.000004 -50.630100 18.561900 -16.719300 -24.328900 0.000322 -0.000009 1.845790 5.726310 -17.909300 -22.291500 -0.000108 -0.000004 16.504300 5.365100 -1.835520 -2.192480 -6.469440 -0.000000 -173.223000 -8.790380 -12.463700 39.081100 -0.000007 -0.000012 0.121081 -0.071827 59.321400 40.985400 -0.000006 -0.000013 5.915700 0.238571 -63.793400 11.754300 -0.000000 0.000003 -0.005686 -0.067967 -19.342700 -2.192510 6.469440 -0.000001 171.748000 23.533800 -178.767000 -39.081100 -0.002282 -0.040193 0.031221 -0.039905 34.988700 -40.985400 0.000008 0.000006 3.381330 11.753900 -68.813600 -11.754300 -0.000006 -0.000006 -1.729440 -1.982750 -20.747800
0.000000 0.000000 0.000000 0.000000 0.000000 -0.000000 108.211000 90.603500 199.323000 -85.179700 51.784700 -176.361000 15.735700 0.000005 -0.000001 99.967500 83.583500 -98.205500 8.984550 -0.406207 -0.000000 4.845100 2.172110 3.428260 16.377300 -0.000001 -0.000001 -1.503590 6.150050 2.931490 6.456720 -0.000001 -0.000000 -8.314320 7.943560 10.050900 12.994200 -0.242716 4.980390 -91.007300 3.224760 -72.643300 5.348090 -0.000007 -0.000001 -67.905900 16.307000 -7.942480 24.328600 0.000019 0.000005 8.005910 30.020000 -15.701800 22.291600 -0.000001 0.000005 14.729100 5.030310 6.668090 12.994500 -0.242716 -4.980390 88.518500 11.091600 -82.343000 -5.348130 -0.000001 -0.000004 -48.282500 17.464600 -18.648600 -24.328900 0.000322 -0.000009 1.963750 5.339570 -20.236400 -22.291500 -0.000108 -0.000004 16.852700 5.371070 -2.019840 -2.192480 -6.469440 -0.000000 -174.490000 -12.252400 -13.738200 39.081100 -0.000007 -0.000012 0.081593 -0.064117 51.837500 40.985400 -0.000006 -0.000013 4.066490 0.791339 -65.547400 11.754300 -0.000000 0.000003 -0.004999 -0.061461 -19.077500 -2.192510 6.469440 -0.000001 171.325000 24.427500 -177.068000 -39.081100 -0.002282 -0.040193 0.034638 -0.047042 33.675900 -40.985400 0.000008 0.000006 3.229000 12.048700 -67.385400 -11.754300 -0.000006 -0.000006 -0.562621 -0.688080 -21.352700
0.000000 0.000000 0.000000 0.000000 0.000000 -0.000000 109.654000 90.789400 198.198000 -84.876200 50.698100 -176.830000 15.735700 0.000005 -0.000001 102.461000 83.636800 -100.687000 8.984550 -0.406207 -0.000000 4.625530 2.692520 3.436470 16.377300 -0.000001 -0.000001 -1.622250 6.196760 2.923970 6.456720 -0.000001 -0.000000 -8.567200 7.701220 9.796990 12.994200 -0.242716 4.980390 -91.041100 3.251860 -72.236900 5.348090 -0.000007 -0.000001 -65.013200 9.805730 -4.748250 24.328600 0.000019 0.000005 8.094160 28.210100 -16.744200 22.291600 -0.000001 0.000005 15.482000 5.030770 6.657950 12.994500 -0.242716 -4.980390 88.584300 10.853400 -82.522900 -5.348130 -0.000001 -0.000004 -46.291200 15.959900 -19.863300 -24.328900 0.000322 -0.000009 2.091560 4.952640 -22.940100 -22.291500 -0.000108 -0.000004 17.477200 5.383240 -2.400360 -2.192480 -6.469440 -0.000000 -176.188000 -16.585800 -14.769200 39.081100 -0.000007 -0.000012 0.047310 -0.049545 43.676300 40.985400 -0.000006 -0.000013 3.490410 -0.535099 -66.125300 11.754300 -0.000000 0.000003 -0.005097 -0.062405 -19.116000 -2.192510 6.469440 -0.000001 170.991000 25.042000 -175.422000 -39.081100 -0.002282 -0.040193 0.035985 -0.050770 32.776000 -40.985400 0.000008 0.000006 2.906810 12.123300 -66.338400 -11.754300 -0.000006 -0.000006 -0.016669 -0.148086 -22.617800
0.000000 0.000000 0.000000 0.000000 0.000000 -0.000000 111.097000 90.709600 196.952000 -84.353000 49.446900 -177.514000 15.735700 0.000005 -0.000001 104.212000 83.719300 -102.386000 8.984550 -0.406207 -0.000000 4.370190 3.024810 3.532980 16.377300 -0.000001 -0.000001 -1.877340 6.162010 2.920820 6.456720 -0.000001 -0.000000 -8.771090 7.435530 9.515180 12.994200 -0.242716 4.980390 -91.031300 3.173350 -71.986400 5.348090 -0.000007 -0.000001 -61.788900 5.911000 -1.923630 24.328600 0.000019 0.000005 8.418050 27.188700 -17.946100 22.291600 -0.000001 0.000005 15.845000 5.053250 6.165290 12.994500 -0.242716 -4.980390 88.636000 10.660000 -82.665300 -5.348130 -0.000001 -0.000004 -44.679700 14.443500 -20.540500 -24.328900 0.000322 -0.000009 2.079860 4.350610 -25.593500 -22.291500 -0.000108 -0.000004 18.241000 5.397080 -2.842670 -2.192480 -6.469440 -0.000000 -178.373000 -21.062100 -15.993500 39.081100 -0.000007 -0.000012 0.021672 -0.029938 35.898500 40.985400 -0.000006 -0.000013 3.443950 -1.430000 -65.697200 11.754300 -0.000000 0.000003 -0.004200 -0.053507 -18.753400 -2.192510 6.469440 -0.000001 170.805000 25.558000 -173.975000 -39.081100 -0.002282 -0.040193 0.035130 -0.050156 32.403100 -40.985400 0.000008 0.000006 2.480920 11.957100 -65.876400 -11.754300 -0.000006 -0.000006 -0.022653 -0.181563 -23.996500
0.000000 0.000000 0.000000 0.000000 0.000000 -0.000000 112.659000 90.406200 195.558000 -83.550700 48.217000 -178.284000 15.735700 0.000005 -0.000001 105.506000 83.815400 -103.598000 8.984550 -0.406207 -0.000000 4.107350 3.240810 3.695540 16.377300 -0.000001 -0.000001 -2.046950 6.105160 2.903990 6.456720 -0.000001 -0.000000 -9.039030 7.188200 9.445880 12.994200 -0.242716 4.980390 -90.984800 2.997390 -71.802700 5.348090 -0.000007 -0.000001 -58.759100 4.046650 0.679717 24.328600 0.000019 0.000005 8.771150 26.751900 -18.920300 22.291600 -0.000001 0.000005 16.551500 5.049280 6.252980 12.994500 -0.242716 -4.980390 88.647000 10.659400 -82.723400 -5.348130 -0.000001 -0.000004 -43.439200 13.141500 -20.865800 -24.328900 0.000322 -0.000009 1.787080 3.405470 -27.724900 -22.291500 -0.000108 -0.000004 18.871400 5.412910 -3.361820 -2.192480 -6.469440 -0.000000 178.590000 -25.110200 -19.188500 39.081100 -0.000007 -0.000012 0.285143 -0.457467 31.936000 40.985400 -0.000006 -0.000013 8.348000 -1.958240 -63.918800 11.754300 -0.000000 0.000003 -0.004500 -0.056552 -18.877500 -2.192510 6.469440 -0.000001 170.703000 25.958900 -172.472000 -39.081100 -0.002282 -0.040193 0.031895 -0.044872 32.510500 -40.985400 0.000008 0.000006 1.959010 11.793300 -65.833000 -11.754300 -0.000006 -0.000006 -0.028912 -0.212432 -25.273300
0.000000 0.000000 0.000000 0.000000 0.000000 -0.000000 114.302000 89.953400 193.923000 -83.287500 47.545600 -178.669000 15.735700 0.000005 -0.000001 107.029000 83.862500 -105.225000 8.984550 -0.406207 -0.000000 3.923940 3.529220 3.484970 16.377300 -0.000001 -0.000001 -2.159300 6.199830 3.009210 6.456720 -0.000001 -0.000000 -9.526590 7.032830 9.371850 12.994200 -0.242716 4.980390 -90.956100 2.878090 -71.615000 5.348090 -0.000007 -0.000001 -56.265700 2.899980 2.948270 24.328600 0.000019 0.000005 8.794950 26.599600 -19.062100 22.291600 -0.000001 0.000005 17.806900 5.038700 6.485100 12.994500 -0.242716 -4.980390 88.657600 10.874500 -82.919500 -5.348130 -0.000001 -0.000004 -42.635700 12.002900 -21.124200 -24.328900 0.000322 -0.000009 1.552100 2.789360 -29.125700 -22.291500 -0.000108 -0.000004 19.082200 5.421430 -3.647280 -2.192480 -6.469440 -0.000000 176.770000 -27.453700 -21.784400 39.081100 -0.000007 -0.000012 0.174236 -0.296918 30.405100 40.985400 -0.000006 -0.000013 10.297100 -2.389070 -60.017600 11.754300 -0.000000 0.000003 -0.003791 -0.049260 -18.580500 -2.192510 6.469440 -0.000001 170.129000 25.859600 -171.320000 -39.081100 -0.002282 -0.040193 0.029959 -0.040500 33.360500 -40.985400 0.000008 0.000006 1.481050 11.838700 -66.031400 -11.754300 -0.000006 -0.000006 -0.037302 -0.249172 -26.801200
0.000000 0.000000 0.000000 0.000000 0.000000 -0.000000 116.144000 89.333800 191.912000 -83.339600 48.009400 -178.902000 15.735700 0.000005 -0.000001 110.011000 83.880500 -108.481000 8.984550 -0.406207 -0.000000 3.688740 4.128280 2.924920 16.377300 -0.000001 -0.000001 -2.172480 6.564670 3.180740 6.456720 -0.000001 -0.000000 -9.999470 7.103700 9.414220 12.994200 -0.242716 4.980390 -90.926500 2.740480 -71.312200 5.348090 -0.000007 -0.000001 -54.533400 1.430840 5.142100 24.328600 0.000019 0.000005 8.442630 26.638000 -18.317100 22.291600 -0.000001 0.000005 19.272900 5.020690 6.876190 12.994500 -0.242716 -4.980390 88.713200 11.095200 -83.342100 -5.348130 -0.000001 -0.000004 -42.687900 11.280800 -21.249200 -24.328900 0.000322 -0.000009 1.574360 2.748870 -29.833600 -22.291500 -0.000108 -0.000004 19.377200 5.421990 -3.666350 -2.192480 -6.469440 -0.000000 177.343000 -25.410300 -22.909300 39.081100 -0.000007 -0.000012 -0.055909 0.083436 33.826000 40.985400 -0.000006 -0.000013 9.704080 -1.812200 -58.737700 11.754300 -0.000000 0.000003 -0.000894 -0.013886 -17.141600 -2.192510 6.469440 -0.000001 169.401000 24.410700 -170.707000 -39.081100 -0.002282 -0.040193 0.031554 -0.040469 34.930300 -40.985400 0.000008 0.000006 0.829265 11.814500 -66.296700 -11.754300 -0.000006 -0.000006 -0.048654 -0.292926 -28.633700
0.000000 0.000000 0.000000 0.000000 0.000000 -0.000000 118.258000 88.646900 189.435000 -82.710300 49.426200 -179.336000 15.735700 0.000005 -0.000001 114.022000 83.807200 -112.679000 8.984550 -0.406207 -0.000000 3.501160 4.985810 2.530620 16.377300 -0.000001 -0.000001 -2.322760 7.105690 3.376550 6.456720 -0.000001 -0.000000 -9.990370 7.399200 9.255080 12.994200 -0.242716 4.980390 -90.947400 2.747270 -70.964900 5.348090 -0.000007 -0.000001 -53.279500 -0.380912 7.459750 24.328600 0.000019 0.000005 7.774730 26.750700 -16.874300 22.291600 -0.000001 0.000005 19.797500 4.986960 7.595400 12.994500 -0.242716 -4.980390 88.758000 11.176600 -83.617800 -5.348130 -0.000001 -0.000004 -43.669000 11.558300 -21.317300 -24.328900 0.000322 -0.000009 1.608750 2.809550 -29.828500 -22.291500 -0.000108 -0.000004 19.881200 5.423150 -3.705350 -2.192480 -6.469440 -0.000000 178.942000 -22.387200 -23.017200 39.081100 -0.000007 -0.000012 -0.069430 0.083845 39.628200 40.985400 -0.000006 -0.000013 7.281690 -6.616770 -63.322400 11.754300 -0.000000 0.000003 -0.000504 -0.008086 -16.905900 -2.192510 6.469440 -0.000001 168.879000 21.902700 -169.992000 -39.081100 -0.002282 -0.040193 0.038290 -0.046762 36.816800 -40.985400 0.000008 0.000006 0.176364 11.979800 -65.724300 -11.754300 -0.000006 -0.000006 -0.070181 -0.363528 -31.626400
0.000000 0.000000 0.000000 0.000000 0.000000 -0.000000 120.276000 88.133500 186.647000 -82.991300 50.861500 -178.801000 15.735700 0.000005 -0.000001 116.959000 83.652800 -116.027000 8.984550 -0.406207 -0.000000 3.517910 5.713290 1.687420 16.377300 -0.000001 -0.000001 -2.365850 7.501490 3.322430 6.456720 -0.000001 -0.000000 -10.248900 7.729010 8.980670 12.994200 -0.242716 4.980390 -91.033200 2.962800 -70.765000 5.348090 -0.000007 -0.000001 -52.718100 -2.263900 9.245000 24.328600 0.000019 0.000005 6.903940 27.589300 -14.651600 22.291600 -0.000001 0.000005 20.201900 4.935360 8.664670 12.994500 -0.242716 -4.980390 88.711600 11.523600 -83.576700 -5.348130 -0.000001 -0.000004 -45.291000 12.376800 -20.978500 -24.328900 0.000322 -0.000009 1.611270 2.850480 -29.511000 -22.291500 -0.000108 -0.000004 20.169600 5.423940 -3.732400 -2.192480 -6.469440 -0.000000 179.356000 -21.871800 -21.672900 39.081100 -0.000007 -0.000012 -0.227106 0.242811 43.086400 40.985400 -0.000006 -0.000013 5.868420 -8.509640 -67.410100 11.754300 -0.000000 0.000003 -0.000056 -0.000626 -16.601800 -2.192510 6.469440 -0.000001 167.357000 19.410500 -169.546000 -39.081100 -0.002282 -0.040193 0.058101 -0.067034 39.276600 -40.985400 0.000008 0.000006 -0.694992 12.666000 -63.328100 -11.754300 -0.000006 -0.000006 -0.112374 -0.474272 -36.432300
